<svg width="658" height="108" viewBox="0 0 658 108" fill="none" xmlns="http://www.w3.org/2000/svg">
<mask id="mask0_215_6248" style="mask-type:alpha" maskUnits="userSpaceOnUse" x="0" y="0" width="658" height="108">
<rect width="658" height="108" fill="#C4C4C4"/>
</mask>
<g mask="url(#mask0_215_6248)">
<g opacity="0.2">
<rect x="586.286" width="35.8572" height="35.8572" fill="#626262"/>
<rect opacity="0.5" x="586.286" y="35.8572" width="35.8572" height="35.8572" fill="#626262"/>
<rect x="586.286" y="71.7146" width="35.8572" height="35.8572" fill="#626262"/>
<rect x="550.429" width="35.8572" height="35.8572" fill="#626262"/>
<rect x="550.429" y="35.8572" width="35.8572" height="35.8572" fill="#626262"/>
<rect x="550.429" y="71.7146" width="35.8572" height="35.8572" fill="#626262"/>
<rect opacity="0.1" x="514.571" width="35.8572" height="35.8572" fill="#626262"/>
<rect opacity="0.8" x="514.571" y="35.8572" width="35.8572" height="35.8572" fill="#626262"/>
<rect opacity="0.1" x="514.571" y="71.7146" width="35.8572" height="35.8572" fill="#626262"/>
<rect opacity="0.3" x="478.715" width="35.8572" height="35.8572" fill="#626262"/>
<rect x="478.715" y="35.8572" width="35.8572" height="35.8572" fill="#626262"/>
<rect opacity="0.6" x="478.715" y="71.7146" width="35.8572" height="35.8572" fill="#626262"/>
<rect x="442.856" width="35.8572" height="35.8572" fill="#626262"/>
<rect opacity="0.4" x="442.856" y="35.8572" width="35.8572" height="35.8572" fill="#626262"/>
<rect x="442.856" y="71.7146" width="35.8572" height="35.8572" fill="#626262"/>
<rect x="407" width="35.8572" height="35.8572" fill="#626262"/>
<rect x="407" y="35.8572" width="35.8572" height="35.8572" fill="#626262"/>
<rect x="407" y="71.7146" width="35.8572" height="35.8572" fill="#626262"/>
<rect opacity="0.1" x="371.144" width="35.8572" height="35.8572" fill="#626262"/>
<rect x="371.144" y="35.8572" width="35.8572" height="35.8572" fill="#626262"/>
<rect opacity="0.6" x="371.144" y="71.7146" width="35.8572" height="35.8572" fill="#626262"/>
<rect x="335.286" width="35.8572" height="35.8572" fill="#626262"/>
<rect x="335.286" y="35.8572" width="35.8572" height="35.8572" fill="#626262"/>
<rect x="335.286" y="71.7146" width="35.8572" height="35.8572" fill="#626262"/>
<rect opacity="0.2" x="299.429" width="35.8572" height="35.8572" fill="#626262"/>
<rect x="299.429" y="35.8572" width="35.8572" height="35.8572" fill="#626262"/>
<rect x="299.429" y="71.7146" width="35.8572" height="35.8572" fill="#626262"/>
<rect opacity="0.1" x="263.571" width="35.8572" height="35.8572" fill="#626262"/>
<rect opacity="0.5" x="263.571" y="35.8572" width="35.8572" height="35.8572" fill="#626262"/>
<rect x="227.714" width="35.8572" height="35.8572" fill="#626262"/>
<rect opacity="0.4" x="156" width="35.8572" height="35.8572" fill="#626262"/>
<rect x="622.144" width="35.8572" height="35.8572" fill="#626262"/>
</g>
</g>
</svg>
