<svg width="44" height="44" viewBox="0 0 44 44" fill="none" xmlns="http://www.w3.org/2000/svg">
<circle opacity="0.3" cx="22" cy="22" r="22" fill="#A1E6D5"/>
<path fill-rule="evenodd" clip-rule="evenodd" d="M15.0017 22.0572C14.988 21.8191 15.0565 21.5762 15.2111 21.3807L21.168 12.4453C21.5638 11.8516 22.4363 11.8516 22.8321 12.4453L28.789 21.3807C29.0745 21.7419 29.0666 22.2645 28.7886 22.6199L22.8321 31.5547C22.4363 32.1484 21.5638 32.1484 21.168 31.5547L15.2115 22.6199C15.0915 22.4665 15.0218 22.2819 15.0044 22.0925C15.0033 22.0808 15.0024 22.069 15.0017 22.0572ZM18.4492 23.8705L22.0001 29.196L25.55 23.8708L22.3163 24.9487C22.111 25.0171 21.8891 25.0171 21.6838 24.9487L18.4492 23.8705ZM25.0781 19.421L22.0001 14.803L18.9211 19.4214L21.5529 18.1056C21.8344 17.9648 22.1658 17.9648 22.4473 18.1056L25.0781 19.421ZM22.0001 20.118L25.3931 21.814L22.0001 22.946L18.6061 21.814L22.0001 20.118Z" fill="#35C19F"/>
</svg>
