<svg width="153" height="121" viewBox="0 0 153 121" fill="none" xmlns="http://www.w3.org/2000/svg">
<path d="M95.6984 31.6312C102.062 37.5654 105.587 45.7268 105.587 54.2062L108.774 72.2434C109.633 77.103 108.992 82.1091 106.849 86.5955C106.695 86.9172 106.534 87.2362 106.366 87.5526C103.022 93.8518 92.2476 99.8366 77.644 99.8366C63.0405 99.8366 52.3389 92.6369 48.993 86.3377C48.9377 86.2344 48.8838 86.1305 48.8299 86.0258C46.4258 81.341 45.691 76.0366 46.6314 70.9023L49.6972 54.2055C49.6972 45.7268 53.2219 37.5654 59.5854 31.6312C63.9263 27.5816 69.8473 24.3047 77.6391 24.3047C85.4309 24.3047 91.3575 27.5816 95.6984 31.6312Z" fill="url(#paint0_linear_2499:17350)"/>
<path d="M95.6984 31.6312C102.062 37.5654 105.587 45.7268 105.587 54.2062L108.774 72.2434C109.633 77.103 108.992 82.1091 106.849 86.5955C106.695 86.9172 106.534 87.2362 106.366 87.5526C103.022 93.8518 92.2476 99.8366 77.644 99.8366C63.0405 99.8366 52.3389 92.6369 48.993 86.3377C48.9377 86.2344 48.8838 86.1305 48.8299 86.0258C46.4258 81.341 45.691 76.0366 46.6314 70.9023L49.6972 54.2055C49.6972 45.7268 53.2219 37.5654 59.5854 31.6312C63.9263 27.5816 69.8473 24.3047 77.6391 24.3047C85.4309 24.3047 91.3575 27.5816 95.6984 31.6312Z" stroke="#111618" stroke-width="4.46808" stroke-linejoin="round"/>
<path d="M95.6984 31.6312C102.062 37.5654 105.587 45.7268 105.587 54.2062L108.774 72.2434C109.633 77.103 108.992 82.1091 106.849 86.5955C106.695 86.9172 106.534 87.2362 106.366 87.5526C103.022 93.8518 92.2476 99.8366 77.644 99.8366C63.0405 99.8366 52.3389 92.6369 48.993 86.3377C48.9377 86.2344 48.8838 86.1305 48.8299 86.0258C46.4258 81.341 45.691 76.0366 46.6314 70.9023L49.6972 54.2055C49.6972 45.7268 53.2219 37.5654 59.5854 31.6312C63.9263 27.5816 69.8473 24.3047 77.6391 24.3047C85.4309 24.3047 91.3575 27.5816 95.6984 31.6312Z" stroke="black" stroke-opacity="0.2" stroke-width="4.46808" stroke-linejoin="round"/>
<path d="M71.8695 63.0777L71.8693 63.0779C71.9636 63.1716 72.0836 63.2353 72.214 63.2611C72.3445 63.2868 72.4796 63.2733 72.6024 63.2224C72.7252 63.1715 72.8303 63.0853 72.9042 62.9748C72.9782 62.8644 73.0178 62.7345 73.0181 62.6016C73.0181 62.6016 73.0181 62.6015 73.0181 62.6015M71.8695 63.0777L72.3444 57.9902C72.5325 57.9902 72.7128 58.065 72.8458 58.198C72.9788 58.331 73.0536 58.5114 73.0536 58.6995V62.6016L73.0181 62.6015M71.8695 63.0777L71.8665 63.0753L69.9736 61.5569L69.9514 61.5846L69.9736 61.5569C69.5368 61.2066 68.9936 61.0157 68.4337 61.0158H63.2699C63.0915 61.0155 62.9204 60.9446 62.7942 60.8184L62.7942 60.8183L61.1538 59.1779L61.1537 59.1778C61.0591 59.084 60.9944 58.9642 60.9679 58.8336C60.9414 58.703 60.9541 58.5675 61.0046 58.4442C61.0551 58.3209 61.141 58.2153 61.2515 58.1408C61.362 58.0663 61.492 58.0263 61.6253 58.0257M71.8695 63.0777L61.6253 58.0257M73.0181 62.6015L73.0181 58.6995C73.0181 58.5208 72.9471 58.3494 72.8208 58.223C72.6944 58.0967 72.523 58.0257 72.3444 58.0257H61.6253M73.0181 62.6015L61.6253 58.0257" fill="black"/>
<path d="M71.8695 63.0777L71.8693 63.0779C71.9636 63.1716 72.0836 63.2353 72.214 63.2611C72.3445 63.2868 72.4796 63.2733 72.6024 63.2224C72.7252 63.1715 72.8303 63.0853 72.9042 62.9748C72.9782 62.8644 73.0178 62.7345 73.0181 62.6016C73.0181 62.6016 73.0181 62.6015 73.0181 62.6015M71.8695 63.0777L72.3444 57.9902C72.5325 57.9902 72.7128 58.065 72.8458 58.198C72.9788 58.331 73.0536 58.5114 73.0536 58.6995V62.6016L73.0181 62.6015M71.8695 63.0777L71.8665 63.0753L69.9736 61.5569L69.9514 61.5846L69.9736 61.5569C69.5368 61.2066 68.9936 61.0157 68.4337 61.0158H63.2699C63.0915 61.0155 62.9204 60.9446 62.7942 60.8184L62.7942 60.8183L61.1538 59.1779L61.1537 59.1778C61.0591 59.084 60.9944 58.9642 60.9679 58.8336C60.9414 58.703 60.9541 58.5675 61.0046 58.4442C61.0551 58.3209 61.141 58.2153 61.2515 58.1408C61.362 58.0663 61.492 58.0263 61.6253 58.0257M71.8695 63.0777L61.6253 58.0257M73.0181 62.6015L73.0181 58.6995C73.0181 58.5208 72.9471 58.3494 72.8208 58.223C72.6944 58.0967 72.523 58.0257 72.3444 58.0257H61.6253M73.0181 62.6015L61.6253 58.0257" stroke="#111618" stroke-width="0.070922"/>
<path d="M71.8695 63.0777L71.8693 63.0779C71.9636 63.1716 72.0836 63.2353 72.214 63.2611C72.3445 63.2868 72.4796 63.2733 72.6024 63.2224C72.7252 63.1715 72.8303 63.0853 72.9042 62.9748C72.9782 62.8644 73.0178 62.7345 73.0181 62.6016C73.0181 62.6016 73.0181 62.6015 73.0181 62.6015M71.8695 63.0777L72.3444 57.9902C72.5325 57.9902 72.7128 58.065 72.8458 58.198C72.9788 58.331 73.0536 58.5114 73.0536 58.6995V62.6016L73.0181 62.6015M71.8695 63.0777L71.8665 63.0753L69.9736 61.5569L69.9514 61.5846L69.9736 61.5569C69.5368 61.2066 68.9936 61.0157 68.4337 61.0158H63.2699C63.0915 61.0155 62.9204 60.9446 62.7942 60.8184L62.7942 60.8183L61.1538 59.1779L61.1537 59.1778C61.0591 59.084 60.9944 58.9642 60.9679 58.8336C60.9414 58.703 60.9541 58.5675 61.0046 58.4442C61.0551 58.3209 61.141 58.2153 61.2515 58.1408C61.362 58.0663 61.492 58.0263 61.6253 58.0257M71.8695 63.0777L61.6253 58.0257M73.0181 62.6015L73.0181 58.6995C73.0181 58.5208 72.9471 58.3494 72.8208 58.223C72.6944 58.0967 72.523 58.0257 72.3444 58.0257H61.6253M73.0181 62.6015L61.6253 58.0257" stroke="black" stroke-opacity="0.2" stroke-width="0.070922"/>
<path d="M83.6789 63.0754L83.6788 63.0752L83.6761 63.0779C83.5818 63.1719 83.4619 63.2358 83.3313 63.2616C83.2007 63.2875 83.0654 63.2741 82.9425 63.2232C82.8195 63.1722 82.7144 63.086 82.6404 62.9753C82.5664 62.8647 82.5268 62.7346 82.5267 62.6015L82.5267 58.6995C82.5267 58.5208 82.5977 58.3494 82.724 58.223C82.8504 58.0967 83.0217 58.0257 83.2004 58.0257H93.9195C94.0526 58.026 94.1825 58.0657 94.293 58.1397C94.4036 58.2138 94.4897 58.3189 94.5406 58.4418C94.5914 58.5647 94.6048 58.7 94.5789 58.8305C94.553 58.961 94.4891 59.0809 94.3952 59.1751C94.3952 59.1751 94.3952 59.1751 94.3952 59.1751L92.7548 60.8155L92.7799 60.8406L92.7548 60.8155C92.6286 60.9417 92.4576 61.0127 92.2791 61.0129H87.1111C86.5512 61.0129 86.008 61.2038 85.5712 61.5541L85.5711 61.5541L83.6789 63.0754Z" fill="black"/>
<path d="M83.6789 63.0754L83.6788 63.0752L83.6761 63.0779C83.5818 63.1719 83.4619 63.2358 83.3313 63.2616C83.2007 63.2875 83.0654 63.2741 82.9425 63.2232C82.8195 63.1722 82.7144 63.086 82.6404 62.9753C82.5664 62.8647 82.5268 62.7346 82.5267 62.6015L82.5267 58.6995C82.5267 58.5208 82.5977 58.3494 82.724 58.223C82.8504 58.0967 83.0217 58.0257 83.2004 58.0257H93.9195C94.0526 58.026 94.1825 58.0657 94.293 58.1397C94.4036 58.2138 94.4897 58.3189 94.5406 58.4418C94.5914 58.5647 94.6048 58.7 94.5789 58.8305C94.553 58.961 94.4891 59.0809 94.3952 59.1751C94.3952 59.1751 94.3952 59.1751 94.3952 59.1751L92.7548 60.8155L92.7799 60.8406L92.7548 60.8155C92.6286 60.9417 92.4576 61.0127 92.2791 61.0129H87.1111C86.5512 61.0129 86.008 61.2038 85.5712 61.5541L85.5711 61.5541L83.6789 63.0754Z" stroke="#111618" stroke-width="0.070922"/>
<path d="M83.6789 63.0754L83.6788 63.0752L83.6761 63.0779C83.5818 63.1719 83.4619 63.2358 83.3313 63.2616C83.2007 63.2875 83.0654 63.2741 82.9425 63.2232C82.8195 63.1722 82.7144 63.086 82.6404 62.9753C82.5664 62.8647 82.5268 62.7346 82.5267 62.6015L82.5267 58.6995C82.5267 58.5208 82.5977 58.3494 82.724 58.223C82.8504 58.0967 83.0217 58.0257 83.2004 58.0257H93.9195C94.0526 58.026 94.1825 58.0657 94.293 58.1397C94.4036 58.2138 94.4897 58.3189 94.5406 58.4418C94.5914 58.5647 94.6048 58.7 94.5789 58.8305C94.553 58.961 94.4891 59.0809 94.3952 59.1751C94.3952 59.1751 94.3952 59.1751 94.3952 59.1751L92.7548 60.8155L92.7799 60.8406L92.7548 60.8155C92.6286 60.9417 92.4576 61.0127 92.2791 61.0129H87.1111C86.5512 61.0129 86.008 61.2038 85.5712 61.5541L85.5711 61.5541L83.6789 63.0754Z" stroke="black" stroke-opacity="0.2" stroke-width="0.070922"/>
<path d="M77.6976 86.9622C75.5762 86.9684 73.5116 86.2771 71.8216 84.9947C71.5283 84.7739 71.1651 84.6663 70.7988 84.6918C70.4325 84.7173 70.0876 84.8741 69.8276 85.1334L69.8276 85.1334C69.674 85.2865 69.5548 85.4707 69.478 85.6736C69.4012 85.8764 69.3686 86.0933 69.3823 86.3098C69.396 86.5263 69.4557 86.7374 69.5575 86.9289C69.6593 87.1205 69.8007 87.2881 69.9724 87.4206C72.1933 89.1092 74.9083 90.0199 77.6982 90.0118L77.6984 90.0118C80.4897 90.0191 83.2058 89.1073 85.4271 87.417C85.5989 87.2846 85.7404 87.117 85.8422 86.9255C85.9441 86.734 86.0039 86.5229 86.0177 86.3064C86.0314 86.09 85.9988 85.873 85.9221 85.6701C85.8453 85.4672 85.7262 85.283 85.5726 85.1299L85.5726 85.1299C85.3126 84.8703 84.9676 84.7134 84.6011 84.6879C84.2346 84.6625 83.8713 84.7702 83.5779 84.9912C81.8869 86.275 79.8208 86.9675 77.6976 86.9622ZM77.6976 86.9622C77.6977 86.9622 77.6977 86.9622 77.6977 86.9622L77.6976 86.9267L77.6975 86.9622C77.6976 86.9622 77.6976 86.9622 77.6976 86.9622Z" fill="black"/>
<path d="M77.6976 86.9622C75.5762 86.9684 73.5116 86.2771 71.8216 84.9947C71.5283 84.7739 71.1651 84.6663 70.7988 84.6918C70.4325 84.7173 70.0876 84.8741 69.8276 85.1334L69.8276 85.1334C69.674 85.2865 69.5548 85.4707 69.478 85.6736C69.4012 85.8764 69.3686 86.0933 69.3823 86.3098C69.396 86.5263 69.4557 86.7374 69.5575 86.9289C69.6593 87.1205 69.8007 87.2881 69.9724 87.4206C72.1933 89.1092 74.9083 90.0199 77.6982 90.0118L77.6984 90.0118C80.4897 90.0191 83.2058 89.1073 85.4271 87.417C85.5989 87.2846 85.7404 87.117 85.8422 86.9255C85.9441 86.734 86.0039 86.5229 86.0177 86.3064C86.0314 86.09 85.9988 85.873 85.9221 85.6701C85.8453 85.4672 85.7262 85.283 85.5726 85.1299L85.5726 85.1299C85.3126 84.8703 84.9676 84.7134 84.6011 84.6879C84.2346 84.6625 83.8713 84.7702 83.5779 84.9912C81.8869 86.275 79.8208 86.9675 77.6976 86.9622ZM77.6976 86.9622C77.6977 86.9622 77.6977 86.9622 77.6977 86.9622L77.6976 86.9267L77.6975 86.9622C77.6976 86.9622 77.6976 86.9622 77.6976 86.9622Z" stroke="#111618" stroke-width="0.070922"/>
<path d="M77.6976 86.9622C75.5762 86.9684 73.5116 86.2771 71.8216 84.9947C71.5283 84.7739 71.1651 84.6663 70.7988 84.6918C70.4325 84.7173 70.0876 84.8741 69.8276 85.1334L69.8276 85.1334C69.674 85.2865 69.5548 85.4707 69.478 85.6736C69.4012 85.8764 69.3686 86.0933 69.3823 86.3098C69.396 86.5263 69.4557 86.7374 69.5575 86.9289C69.6593 87.1205 69.8007 87.2881 69.9724 87.4206C72.1933 89.1092 74.9083 90.0199 77.6982 90.0118L77.6984 90.0118C80.4897 90.0191 83.2058 89.1073 85.4271 87.417C85.5989 87.2846 85.7404 87.117 85.8422 86.9255C85.9441 86.734 86.0039 86.5229 86.0177 86.3064C86.0314 86.09 85.9988 85.873 85.9221 85.6701C85.8453 85.4672 85.7262 85.283 85.5726 85.1299L85.5726 85.1299C85.3126 84.8703 84.9676 84.7134 84.6011 84.6879C84.2346 84.6625 83.8713 84.7702 83.5779 84.9912C81.8869 86.275 79.8208 86.9675 77.6976 86.9622ZM77.6976 86.9622C77.6977 86.9622 77.6977 86.9622 77.6977 86.9622L77.6976 86.9267L77.6975 86.9622C77.6976 86.9622 77.6976 86.9622 77.6976 86.9622Z" stroke="black" stroke-opacity="0.2" stroke-width="0.070922"/>
<path d="M98.1256 60.3446C98.1419 57.9704 97.4366 55.6471 96.103 53.6827C94.7695 51.7182 92.8707 50.2051 90.658 49.3439C88.4454 48.4826 86.0234 48.3138 83.7127 48.8598C81.402 49.4058 79.3116 50.6409 77.7185 52.4014C76.6829 51.2421 75.4269 50.3004 74.0239 49.6312C72.6208 48.962 71.0986 48.5786 69.5459 48.5035C67.9932 48.4283 66.4411 48.6628 64.9799 49.1933C63.5187 49.7238 62.1777 50.5398 61.0349 51.5936C59.8922 52.6475 58.9705 53.9182 58.3236 55.3317C57.6767 56.7452 57.3175 58.2733 57.2669 59.827C57.2164 61.3807 57.4754 62.9289 58.029 64.3815C58.5827 65.8341 59.4197 67.162 60.4915 68.2879C61.2273 69.0596 61.7977 69.9735 62.1676 70.9736C62.5375 71.9736 62.6991 73.0387 62.6426 74.1035C62.6341 74.2562 62.6298 74.4097 62.6298 74.5638V92.2773C62.6298 94.5184 63.6859 95.7382 65.1703 96.8163C67.8455 98.7567 71.0823 99.7695 74.3901 99.7695H82.2483C84.9398 99.7695 87.5738 98.9184 89.7171 97.2929C91.2859 96.1014 92.4192 94.6056 92.4192 92.2787V74.5595C92.4192 74.4886 92.4192 74.4234 92.4192 74.356C92.3667 72.1943 93.1525 70.09 94.6837 68.5638C96.872 66.3865 98.1094 63.4315 98.1256 60.3446V60.3446Z" stroke="#111618" stroke-width="2.97872" stroke-miterlimit="10" stroke-linecap="round"/>
<path d="M98.1256 60.3446C98.1419 57.9704 97.4366 55.6471 96.103 53.6827C94.7695 51.7182 92.8707 50.2051 90.658 49.3439C88.4454 48.4826 86.0234 48.3138 83.7127 48.8598C81.402 49.4058 79.3116 50.6409 77.7185 52.4014C76.6829 51.2421 75.4269 50.3004 74.0239 49.6312C72.6208 48.962 71.0986 48.5786 69.5459 48.5035C67.9932 48.4283 66.4411 48.6628 64.9799 49.1933C63.5187 49.7238 62.1777 50.5398 61.0349 51.5936C59.8922 52.6475 58.9705 53.9182 58.3236 55.3317C57.6767 56.7452 57.3175 58.2733 57.2669 59.827C57.2164 61.3807 57.4754 62.9289 58.029 64.3815C58.5827 65.8341 59.4197 67.162 60.4915 68.2879C61.2273 69.0596 61.7977 69.9735 62.1676 70.9736C62.5375 71.9736 62.6991 73.0387 62.6426 74.1035C62.6341 74.2562 62.6298 74.4097 62.6298 74.5638V92.2773C62.6298 94.5184 63.6859 95.7382 65.1703 96.8163C67.8455 98.7567 71.0823 99.7695 74.3901 99.7695H82.2483C84.9398 99.7695 87.5738 98.9184 89.7171 97.2929C91.2859 96.1014 92.4192 94.6056 92.4192 92.2787V74.5595C92.4192 74.4886 92.4192 74.4234 92.4192 74.356C92.3667 72.1943 93.1525 70.09 94.6837 68.5638C96.872 66.3865 98.1094 63.4315 98.1256 60.3446V60.3446Z" stroke="black" stroke-opacity="0.2" stroke-width="2.97872" stroke-miterlimit="10" stroke-linecap="round"/>
<path d="M77.4767 73.8772C77.4767 75.1893 76.413 76.2531 75.1008 76.2531C73.7886 76.2531 72.7249 75.1893 72.7249 73.8772C72.7249 72.565 73.7886 71.5013 75.1008 71.5013C76.413 71.5013 77.4767 72.565 77.4767 73.8772Z" fill="black"/>
<path d="M77.4767 73.8772C77.4767 75.1893 76.413 76.2531 75.1008 76.2531C73.7886 76.2531 72.7249 75.1893 72.7249 73.8772C72.7249 72.565 73.7886 71.5013 75.1008 71.5013C76.413 71.5013 77.4767 72.565 77.4767 73.8772Z" stroke="#111618" stroke-width="0.070922"/>
<path d="M77.4767 73.8772C77.4767 75.1893 76.413 76.2531 75.1008 76.2531C73.7886 76.2531 72.7249 75.1893 72.7249 73.8772C72.7249 72.565 73.7886 71.5013 75.1008 71.5013C76.413 71.5013 77.4767 72.565 77.4767 73.8772Z" stroke="black" stroke-opacity="0.2" stroke-width="0.070922"/>
<path d="M82.6534 73.8772C82.6534 75.1893 81.5897 76.2531 80.2776 76.2531C78.9654 76.2531 77.9017 75.1893 77.9017 73.8772C77.9017 72.565 78.9654 71.5013 80.2776 71.5013C81.5897 71.5013 82.6534 72.565 82.6534 73.8772Z" fill="black"/>
<path d="M82.6534 73.8772C82.6534 75.1893 81.5897 76.2531 80.2776 76.2531C78.9654 76.2531 77.9017 75.1893 77.9017 73.8772C77.9017 72.565 78.9654 71.5013 80.2776 71.5013C81.5897 71.5013 82.6534 72.565 82.6534 73.8772Z" stroke="#111618" stroke-width="0.070922"/>
<path d="M82.6534 73.8772C82.6534 75.1893 81.5897 76.2531 80.2776 76.2531C78.9654 76.2531 77.9017 75.1893 77.9017 73.8772C77.9017 72.565 78.9654 71.5013 80.2776 71.5013C81.5897 71.5013 82.6534 72.565 82.6534 73.8772Z" stroke="black" stroke-opacity="0.2" stroke-width="0.070922"/>
<path d="M108.612 41.5063H104.215C102.981 41.5063 101.98 42.5066 101.98 43.7404V61.5418C101.98 62.7756 102.981 63.7758 104.215 63.7758H108.612C109.845 63.7758 110.846 62.7756 110.846 61.5418V43.7404C110.846 42.5066 109.845 41.5063 108.612 41.5063Z" fill="#111618"/>
<path d="M108.612 41.5063H104.215C102.981 41.5063 101.98 42.5066 101.98 43.7404V61.5418C101.98 62.7756 102.981 63.7758 104.215 63.7758H108.612C109.845 63.7758 110.846 62.7756 110.846 61.5418V43.7404C110.846 42.5066 109.845 41.5063 108.612 41.5063Z" fill="black" fill-opacity="0.2"/>
<path d="M46.8385 41.5063H51.2357C52.4695 41.5063 53.4697 42.5066 53.4697 43.7404V61.5418C53.4697 62.7756 52.4695 63.7758 51.2357 63.7758H46.8385C45.6047 63.7758 44.6045 62.7756 44.6045 61.5418V43.7404C44.6045 42.5066 45.6047 41.5063 46.8385 41.5063Z" fill="#111618"/>
<path d="M46.8385 41.5063H51.2357C52.4695 41.5063 53.4697 42.5066 53.4697 43.7404V61.5418C53.4697 62.7756 52.4695 63.7758 51.2357 63.7758H46.8385C45.6047 63.7758 44.6045 62.7756 44.6045 61.5418V43.7404C44.6045 42.5066 45.6047 41.5063 46.8385 41.5063Z" fill="black" fill-opacity="0.2"/>
<path d="M114.9 53.0889C115.078 55.6409 113.03 57.7092 110.472 57.7092C110.48 54.3194 109.605 41.7431 107.899 38.6213C106.254 35.6086 103.87 32.8717 100.879 30.5621C97.8958 28.2463 94.3606 26.4006 90.4693 25.1273C86.4373 23.8068 82.1025 23.1297 77.7245 23.1367C73.3459 23.1299 69.0106 23.8074 64.9782 25.1285C61.0869 26.4018 57.5516 28.2475 54.5685 30.5633C51.5772 32.8729 49.1931 35.6098 47.5485 38.6224C45.8428 41.744 44.9683 54.3198 44.9773 57.7092C42.4191 57.7092 40.3714 55.6409 40.5495 53.0889C40.9306 47.6296 41.8511 39.8514 43.2871 37.2255C45.1624 33.7872 47.8824 30.6635 51.2961 28.0281C54.7002 25.3852 58.7349 23.2794 63.1761 21.8276C67.7785 20.3193 72.7268 19.5457 77.7245 19.5533C82.7226 19.5458 87.6711 20.3196 92.2737 21.8282C96.7149 23.28 100.75 25.3858 104.154 28.0287C107.567 30.6641 110.287 33.7878 112.163 37.2261C113.598 39.8518 114.519 47.6298 114.9 53.0889Z" fill="#111618"/>
<path d="M114.9 53.0889C115.078 55.6409 113.03 57.7092 110.472 57.7092C110.48 54.3194 109.605 41.7431 107.899 38.6213C106.254 35.6086 103.87 32.8717 100.879 30.5621C97.8958 28.2463 94.3606 26.4006 90.4693 25.1273C86.4373 23.8068 82.1025 23.1297 77.7245 23.1367C73.3459 23.1299 69.0106 23.8074 64.9782 25.1285C61.0869 26.4018 57.5516 28.2475 54.5685 30.5633C51.5772 32.8729 49.1931 35.6098 47.5485 38.6224C45.8428 41.744 44.9683 54.3198 44.9773 57.7092C42.4191 57.7092 40.3714 55.6409 40.5495 53.0889C40.9306 47.6296 41.8511 39.8514 43.2871 37.2255C45.1624 33.7872 47.8824 30.6635 51.2961 28.0281C54.7002 25.3852 58.7349 23.2794 63.1761 21.8276C67.7785 20.3193 72.7268 19.5457 77.7245 19.5533C82.7226 19.5458 87.6711 20.3196 92.2737 21.8282C96.7149 23.28 100.75 25.3858 104.154 28.0287C107.567 30.6641 110.287 33.7878 112.163 37.2261C113.598 39.8518 114.519 47.6298 114.9 53.0889Z" fill="black" fill-opacity="0.2"/>
<path d="M135.285 21.2453L138.658 8.65689L150.797 9.83379L147.424 22.4222" stroke="black" stroke-width="3" stroke-linecap="round" stroke-linejoin="round"/>
<path d="M131.602 23.3721C133.207 23.802 134.856 22.8499 135.286 21.2455C135.715 19.6411 134.763 17.992 133.159 17.5621C131.555 17.1322 129.905 18.0843 129.476 19.6887C129.046 21.2931 129.998 22.9422 131.602 23.3721Z" fill="#111618"/>
<path d="M131.602 23.3721C133.207 23.802 134.856 22.8499 135.286 21.2455C135.715 19.6411 134.763 17.992 133.159 17.5621C131.555 17.1322 129.905 18.0843 129.476 19.6887C129.046 21.2931 129.998 22.9422 131.602 23.3721Z" fill="black" fill-opacity="0.2"/>
<path d="M131.602 23.3721C133.207 23.802 134.856 22.8499 135.286 21.2455C135.715 19.6411 134.763 17.992 133.159 17.5621C131.555 17.1322 129.905 18.0843 129.476 19.6887C129.046 21.2931 129.998 22.9422 131.602 23.3721Z" stroke="black" stroke-width="3" stroke-linecap="round" stroke-linejoin="round"/>
<path d="M143.741 24.5489C145.345 24.9788 146.994 24.0266 147.424 22.4222C147.854 20.8179 146.902 19.1687 145.298 18.7388C143.693 18.3089 142.044 19.2611 141.614 20.8655C141.184 22.4699 142.136 24.119 143.741 24.5489Z" fill="#111618"/>
<path d="M143.741 24.5489C145.345 24.9788 146.994 24.0266 147.424 22.4222C147.854 20.8179 146.902 19.1687 145.298 18.7388C143.693 18.3089 142.044 19.2611 141.614 20.8655C141.184 22.4699 142.136 24.119 143.741 24.5489Z" fill="black" fill-opacity="0.2"/>
<path d="M143.741 24.5489C145.345 24.9788 146.994 24.0266 147.424 22.4222C147.854 20.8179 146.902 19.1687 145.298 18.7388C143.693 18.3089 142.044 19.2611 141.614 20.8655C141.184 22.4699 142.136 24.119 143.741 24.5489Z" stroke="black" stroke-width="3" stroke-linecap="round" stroke-linejoin="round"/>
<path d="M9.70154 94.1046L6.3285 81.5163L17.4296 76.466L20.8027 89.0544" stroke="black" stroke-width="3" stroke-linecap="round" stroke-linejoin="round"/>
<path d="M7.57508 97.788C9.17947 97.3581 10.1316 95.709 9.70169 94.1046C9.2718 92.5002 7.62268 91.5481 6.01829 91.978C4.4139 92.4078 3.46178 94.057 3.89168 95.6614C4.32157 97.2657 5.97069 98.2179 7.57508 97.788Z" fill="#111618"/>
<path d="M7.57508 97.788C9.17947 97.3581 10.1316 95.709 9.70169 94.1046C9.2718 92.5002 7.62268 91.5481 6.01829 91.978C4.4139 92.4078 3.46178 94.057 3.89168 95.6614C4.32157 97.2657 5.97069 98.2179 7.57508 97.788Z" fill="black" fill-opacity="0.2"/>
<path d="M7.57508 97.788C9.17947 97.3581 10.1316 95.709 9.70169 94.1046C9.2718 92.5002 7.62268 91.5481 6.01829 91.978C4.4139 92.4078 3.46178 94.057 3.89168 95.6614C4.32157 97.2657 5.97069 98.2179 7.57508 97.788Z" stroke="black" stroke-width="3" stroke-linecap="round" stroke-linejoin="round"/>
<path d="M18.6766 92.7377C20.281 92.3078 21.2332 90.6587 20.8033 89.0543C20.3734 87.4499 18.7242 86.4978 17.1199 86.9277C15.5155 87.3576 14.5633 89.0067 14.9932 90.6111C15.4231 92.2155 17.0723 93.1676 18.6766 92.7377Z" fill="#111618"/>
<path d="M18.6766 92.7377C20.281 92.3078 21.2332 90.6587 20.8033 89.0543C20.3734 87.4499 18.7242 86.4978 17.1199 86.9277C15.5155 87.3576 14.5633 89.0067 14.9932 90.6111C15.4231 92.2155 17.0723 93.1676 18.6766 92.7377Z" fill="black" fill-opacity="0.2"/>
<path d="M18.6766 92.7377C20.281 92.3078 21.2332 90.6587 20.8033 89.0543C20.3734 87.4499 18.7242 86.4978 17.1199 86.9277C15.5155 87.3576 14.5633 89.0067 14.9932 90.6111C15.4231 92.2155 17.0723 93.1676 18.6766 92.7377Z" stroke="black" stroke-width="3" stroke-linecap="round" stroke-linejoin="round"/>
<defs>
<linearGradient id="paint0_linear_2499:17350" x1="77.6892" y1="24.3047" x2="77.6892" y2="192.569" gradientUnits="userSpaceOnUse">
<stop stop-color="white"/>
<stop offset="0.722152"/>
</linearGradient>
</defs>
</svg>
