<svg width="14" height="20" viewBox="0 0 14 20" fill="none" xmlns="http://www.w3.org/2000/svg">
<path fill-rule="evenodd" clip-rule="evenodd" d="M0.00100107 9.74624C-0.00928138 9.51965 0.0595725 9.28952 0.211054 9.1035L6.16802 0.432138C6.56385 -0.144046 7.4363 -0.144046 7.83213 0.432138L13.7891 9.10347C14.0745 9.45397 14.0666 9.9611 13.7887 10.306L7.83213 18.9767C7.4363 19.5529 6.56385 19.5529 6.16802 18.9767L0.211448 10.306C0.0944033 10.1607 0.0252523 9.98667 0.00573951 9.80768C0.00349014 9.78724 0.00191066 9.76675 0.00100107 9.74624ZM3.44926 11.5196L7.00009 16.6877L10.55 11.5199L7.3163 12.566C7.11104 12.6324 6.88912 12.6324 6.68385 12.566L3.44926 11.5196ZM10.0781 7.20165L7.00009 2.72014L3.92111 7.2021L6.55286 5.92511C6.83439 5.78851 7.16576 5.78851 7.44729 5.92511L10.0781 7.20165ZM7.00007 7.87805L10.3931 9.52392L7.00007 10.6225L3.60608 9.52392L7.00007 7.87805Z" fill="#35C19F"/>
</svg>
