<svg width="16" height="16" viewBox="0 0 16 16" fill="none" xmlns="http://www.w3.org/2000/svg">
<path d="M15.3337 2C14.6952 2.45032 13.9884 2.79474 13.2403 3.02C12.8388 2.55834 12.3052 2.23113 11.7117 2.08262C11.1181 1.93411 10.4933 1.97147 9.92171 2.18964C9.3501 2.40781 8.85929 2.79627 8.51565 3.30248C8.17201 3.80869 7.99212 4.40823 8.00033 5.02V5.68667C6.82875 5.71705 5.66784 5.45721 4.621 4.9303C3.57415 4.40339 2.67387 3.62576 2.00033 2.66667C2.00033 2.66667 -0.666341 8.66667 5.33366 11.3333C3.96068 12.2653 2.3251 12.7326 0.666992 12.6667C6.66699 16 14.0003 12.6667 14.0003 5C13.9997 4.8143 13.9819 4.62906 13.947 4.44667C14.6274 3.77566 15.1075 2.92848 15.3337 2Z" stroke="#1A1B22" stroke-width="1.25" stroke-linecap="round" stroke-linejoin="round"/>
</svg>
