<svg width="16" height="16" viewBox="0 0 16 16" fill="none" xmlns="http://www.w3.org/2000/svg">
<path fill-rule="evenodd" clip-rule="evenodd" d="M7.93899 0C3.92565 0 0.666992 3.25866 0.666992 7.27266C0.666992 11.2867 3.92565 14.5453 7.93899 14.5453C11.953 14.5453 15.2117 11.2867 15.2117 7.27266C15.2117 3.25866 11.953 0 7.93899 0ZM7.93899 1.2C11.2903 1.2 14.0117 3.92133 14.0117 7.27266C14.0117 10.624 11.2903 13.3453 7.93899 13.3453C4.58765 13.3453 1.86698 10.624 1.86698 7.27266C1.86698 3.92133 4.58765 1.2 7.93899 1.2ZM4.71967 10.15C4.71967 10.15 8.09367 9.23065 10.4957 10.7627C10.775 10.9407 11.1463 10.8587 11.3243 10.5793C11.5023 10.3007 11.4203 9.92933 11.141 9.75133C8.33966 7.96467 4.41032 8.99066 4.41032 8.99066C4.09032 9.076 3.89965 9.40466 3.98499 9.72466C4.07032 10.0447 4.39967 10.2353 4.71967 10.15ZM4.76365 8.026C4.76365 8.026 7.78032 6.98866 11.247 8.79666C11.541 8.94999 11.9037 8.836 12.057 8.542C12.2097 8.24867 12.0957 7.886 11.8023 7.73267C7.82899 5.66133 4.36633 6.894 4.36633 6.894C4.05433 7.00334 3.889 7.34599 3.999 7.65866C4.10834 7.97066 4.45098 8.136 4.76365 8.026ZM4.291 5.878C4.291 5.878 7.961 4.72666 12.1223 6.66733C12.4223 6.80733 12.7797 6.67733 12.9197 6.37733C13.0597 6.07733 12.9297 5.72 12.6297 5.58C8.00766 3.424 3.92832 4.734 3.92832 4.734C3.61232 4.834 3.43766 5.172 3.53766 5.48734C3.63833 5.80334 3.97566 5.978 4.291 5.878Z" fill="#1A1B22"/>
</svg>
