<svg width="16" height="16" viewBox="0 0 16 16" fill="none" xmlns="http://www.w3.org/2000/svg">
<path d="M11.333 1.33333H4.66634C2.82539 1.33333 1.33301 2.82572 1.33301 4.66667V11.3333C1.33301 13.1743 2.82539 14.6667 4.66634 14.6667H11.333C13.174 14.6667 14.6663 13.1743 14.6663 11.3333V4.66667C14.6663 2.82572 13.174 1.33333 11.333 1.33333Z" stroke="#1A1B22" stroke-width="1.25" stroke-linecap="round" stroke-linejoin="round"/>
<path d="M10.6668 7.58C10.7491 8.13483 10.6543 8.70148 10.396 9.19934C10.1376 9.69721 9.72889 10.1009 9.22788 10.3531C8.72687 10.6053 8.1591 10.6931 7.60532 10.604C7.05155 10.5148 6.53997 10.2534 6.14336 9.85677C5.74674 9.46016 5.48528 8.94858 5.39618 8.39481C5.30707 7.84103 5.39484 7.27326 5.64701 6.77225C5.89919 6.27123 6.30292 5.86249 6.80079 5.60416C7.29865 5.34583 7.8653 5.25106 8.42013 5.33333C8.98608 5.41726 9.51003 5.68097 9.91459 6.08554C10.3192 6.4901 10.5829 7.01405 10.6668 7.58Z" stroke="#1A1B22" stroke-width="1.25" stroke-linecap="round" stroke-linejoin="round"/>
<path d="M11.667 4.33333H11.6737" stroke="#1A1B22" stroke-width="1.25" stroke-linecap="round" stroke-linejoin="round"/>
</svg>
