<svg width="44" height="44" viewBox="0 0 44 44" fill="none" xmlns="http://www.w3.org/2000/svg">
<circle opacity="0.3" cx="22" cy="22" r="22" fill="#A1E6D5"/>
<path d="M26 29V27.3333C26 26.4493 25.6629 25.6014 25.0627 24.9763C24.4626 24.3512 23.6487 24 22.8 24H17.2C16.3513 24 15.5374 24.3512 14.9373 24.9763C14.3371 25.6014 14 26.4493 14 27.3333V29" stroke="#35C19F" stroke-width="2" stroke-linecap="round" stroke-linejoin="round"/>
<path d="M20 21C21.6569 21 23 19.6569 23 18C23 16.3431 21.6569 15 20 15C18.3431 15 17 16.3431 17 18C17 19.6569 18.3431 21 20 21Z" stroke="#35C19F" stroke-width="2" stroke-linecap="round" stroke-linejoin="round"/>
<path d="M26 21.5L27.6667 23L31 20" stroke="#35C19F" stroke-width="2" stroke-linecap="round" stroke-linejoin="round"/>
</svg>
