<svg width="986" height="591" viewBox="0 0 986 591" fill="none" xmlns="http://www.w3.org/2000/svg">
<mask id="mask0_1480_10007" style="mask-type:alpha" maskUnits="userSpaceOnUse" x="0" y="0" width="986" height="591">
<rect width="986" height="591" rx="16" fill="#A1E6D5"/>
</mask>
<g mask="url(#mask0_1480_10007)">
<g opacity="0.3">
<rect opacity="0.1" x="43.7129" y="331.5" width="43.9285" height="43.9285" transform="rotate(-180 43.7129 331.5)" fill="#A1E6D5"/>
<rect opacity="0.8" x="43.7129" y="287.572" width="43.9285" height="43.9285" transform="rotate(-180 43.7129 287.572)" fill="#A1E6D5"/>
<rect opacity="0.1" x="43.7129" y="243.643" width="43.9285" height="43.9285" transform="rotate(-180 43.7129 243.643)" fill="#A1E6D5"/>
<rect x="43.7129" y="375.429" width="43.9285" height="43.9285" transform="rotate(-180 43.7129 375.429)" fill="#A1E6D5"/>
<rect x="43.7129" y="419.357" width="43.9285" height="43.9285" transform="rotate(-180 43.7129 419.357)" fill="#A1E6D5"/>
<rect x="43.7129" y="463.286" width="43.9285" height="43.9285" transform="rotate(-180 43.7129 463.286)" fill="#43CEAC"/>
<rect x="43.7129" y="507.214" width="43.9285" height="43.9285" transform="rotate(-180 43.7129 507.214)" fill="#A1E6D5"/>
<rect x="43.7129" y="551.143" width="43.9285" height="43.9285" transform="rotate(-180 43.7129 551.143)" fill="#A1E6D5"/>
<rect x="43.7129" y="595.072" width="43.9285" height="43.9285" transform="rotate(-180 43.7129 595.072)" fill="#43CEAC"/>
<rect opacity="0.5" x="87.6406" y="595.072" width="43.9285" height="43.9285" transform="rotate(-180 87.6406 595.072)" fill="#A1E6D5"/>
<rect x="87.6406" y="551.143" width="43.9285" height="43.9285" transform="rotate(-180 87.6406 551.143)" fill="#43CEAC"/>
<rect opacity="0.6" x="87.6406" y="507.214" width="43.9285" height="43.9285" transform="rotate(-180 87.6406 507.214)" fill="#A1E6D5"/>
<rect x="87.6406" y="463.286" width="43.9285" height="43.9285" transform="rotate(-180 87.6406 463.286)" fill="#A1E6D5"/>
<rect opacity="0.2" x="87.6406" y="419.357" width="43.9285" height="43.9285" transform="rotate(-180 87.6406 419.357)" fill="#A1E6D5"/>
<rect x="87.6406" y="375.429" width="43.9285" height="43.9285" transform="rotate(-180 87.6406 375.429)" fill="#A1E6D5"/>
<rect opacity="0.3" x="87.6406" y="331.5" width="43.9285" height="43.9285" transform="rotate(-180 87.6406 331.5)" fill="#A1E6D5"/>
<rect x="87.6406" y="287.572" width="43.9285" height="43.9285" transform="rotate(-180 87.6406 287.572)" fill="#A1E6D5"/>
<rect opacity="0.6" x="87.6406" y="243.643" width="43.9285" height="43.9285" transform="rotate(-180 87.6406 243.643)" fill="#A1E6D5"/>
<rect x="131.57" y="595.072" width="43.9285" height="43.9285" transform="rotate(-180 131.57 595.072)" fill="#A1E6D5"/>
<rect opacity="0.3" x="131.57" y="551.143" width="43.9285" height="43.9285" transform="rotate(-180 131.57 551.143)" fill="#A1E6D5"/>
<rect x="131.57" y="507.214" width="43.9285" height="43.9285" transform="rotate(-180 131.57 507.214)" fill="#A1E6D5"/>
<rect x="131.57" y="463.286" width="43.9285" height="43.9285" transform="rotate(-180 131.57 463.286)" fill="#43CEAC"/>
<rect opacity="0.21" x="131.57" y="419.357" width="43.9285" height="43.9285" transform="rotate(-180 131.57 419.357)" fill="#A1E6D5"/>
<rect opacity="0.4" x="131.57" y="375.429" width="43.9285" height="43.9285" transform="rotate(-180 131.57 375.429)" fill="#A1E6D5"/>
<rect x="131.57" y="331.5" width="43.9285" height="43.9285" transform="rotate(-180 131.57 331.5)" fill="#A1E6D5"/>
<rect opacity="0.4" x="131.57" y="287.572" width="43.9285" height="43.9285" transform="rotate(-180 131.57 287.572)" fill="#A1E6D5"/>
<rect x="131.57" y="243.643" width="43.9285" height="43.9285" transform="rotate(-180 131.57 243.643)" fill="#A1E6D5"/>
<rect x="175.498" y="595.072" width="43.9285" height="43.9285" transform="rotate(-180 175.498 595.072)" fill="#A1E6D5"/>
<rect x="175.498" y="551.143" width="43.9285" height="43.9285" transform="rotate(-180 175.498 551.143)" fill="#A1E6D5"/>
<rect x="175.498" y="507.214" width="43.9285" height="43.9285" transform="rotate(-180 175.498 507.214)" fill="#43CEAC"/>
<rect opacity="0.5" x="175.498" y="463.286" width="43.9285" height="43.9285" transform="rotate(-180 175.498 463.286)" fill="#A1E6D5"/>
<rect opacity="0.6" x="175.498" y="419.357" width="43.9285" height="43.9285" transform="rotate(-180 175.498 419.357)" fill="#A1E6D5"/>
<rect x="175.498" y="375.429" width="43.9285" height="43.9285" transform="rotate(-180 175.498 375.429)" fill="#43CEAC"/>
<rect x="175.498" y="331.5" width="43.9285" height="43.9285" transform="rotate(-180 175.498 331.5)" fill="#A1E6D5"/>
<rect x="175.498" y="287.572" width="43.9285" height="43.9285" transform="rotate(-180 175.498 287.572)" fill="#A1E6D5"/>
<rect x="175.498" y="243.643" width="43.9285" height="43.9285" transform="rotate(-180 175.498 243.643)" fill="#A1E6D5"/>
<rect x="219.429" y="595.072" width="43.9285" height="43.9285" transform="rotate(-180 219.429 595.072)" fill="#A1E6D5"/>
<rect x="219.429" y="551.143" width="43.9285" height="43.9285" transform="rotate(-180 219.429 551.143)" fill="#A1E6D5"/>
<rect x="219.429" y="507.214" width="43.9285" height="43.9285" transform="rotate(-180 219.429 507.214)" fill="#A1E6D5"/>
<rect x="219.429" y="463.286" width="43.9285" height="43.9285" transform="rotate(-180 219.429 463.286)" fill="#A1E6D5"/>
<rect x="219.429" y="419.357" width="43.9285" height="43.9285" transform="rotate(-180 219.429 419.357)" fill="#A1E6D5"/>
<rect opacity="0.5" x="219.429" y="375.429" width="43.9285" height="43.9285" transform="rotate(-180 219.429 375.429)" fill="#A1E6D5"/>
<rect opacity="0.1" x="219.429" y="331.5" width="43.9285" height="43.9285" transform="rotate(-180 219.429 331.5)" fill="#A1E6D5"/>
<rect x="219.429" y="287.572" width="43.9285" height="43.9285" transform="rotate(-180 219.429 287.572)" fill="#A1E6D5"/>
<rect opacity="0.6" x="219.429" y="243.643" width="43.9285" height="43.9285" transform="rotate(-180 219.429 243.643)" fill="#A1E6D5"/>
<rect opacity="0.4" x="263.356" y="595.072" width="43.9285" height="43.9285" transform="rotate(-180 263.356 595.072)" fill="#A1E6D5"/>
<rect x="263.356" y="551.143" width="43.9285" height="43.9285" transform="rotate(-180 263.356 551.143)" fill="#A1E6D5"/>
<rect x="263.356" y="507.214" width="43.9285" height="43.9285" transform="rotate(-180 263.356 507.214)" fill="#A1E6D5"/>
<rect x="263.356" y="463.286" width="43.9285" height="43.9285" transform="rotate(-180 263.356 463.286)" fill="#A1E6D5"/>
<rect opacity="0.5" x="263.356" y="419.357" width="43.9285" height="43.9285" transform="rotate(-180 263.356 419.357)" fill="#A1E6D5"/>
<rect x="263.356" y="375.429" width="43.9285" height="43.9285" transform="rotate(-180 263.356 375.429)" fill="#A1E6D5"/>
<rect x="263.356" y="331.5" width="43.9285" height="43.9285" transform="rotate(-180 263.356 331.5)" fill="#A1E6D5"/>
<rect x="263.356" y="287.572" width="43.9285" height="43.9285" transform="rotate(-180 263.356 287.572)" fill="#A1E6D5"/>
<rect x="263.356" y="243.643" width="43.9285" height="43.9285" transform="rotate(-180 263.356 243.643)" fill="#A1E6D5"/>
<rect x="307.285" y="595.072" width="43.9285" height="43.9285" transform="rotate(-180 307.285 595.072)" fill="#A1E6D5"/>
<rect x="307.285" y="551.143" width="43.9285" height="43.9285" transform="rotate(-180 307.285 551.143)" fill="#43CEAC"/>
<rect opacity="0.3" x="307.285" y="507.214" width="43.9285" height="43.9285" transform="rotate(-180 307.285 507.214)" fill="#A1E6D5"/>
<rect x="307.285" y="463.286" width="43.9285" height="43.9285" transform="rotate(-180 307.285 463.286)" fill="#A1E6D5"/>
<rect x="307.285" y="419.357" width="43.9285" height="43.9285" transform="rotate(-180 307.285 419.357)" fill="#A1E6D5"/>
<rect x="307.285" y="375.429" width="43.9285" height="43.9285" transform="rotate(-180 307.285 375.429)" fill="#A1E6D5"/>
<rect opacity="0.2" x="307.285" y="331.5" width="43.9285" height="43.9285" transform="rotate(-180 307.285 331.5)" fill="#A1E6D5"/>
<rect x="307.285" y="287.572" width="43.9285" height="43.9285" transform="rotate(-180 307.285 287.572)" fill="#A1E6D5"/>
<rect x="307.285" y="243.643" width="43.9285" height="43.9285" transform="rotate(-180 307.285 243.643)" fill="#A1E6D5"/>
<rect opacity="0.2" x="351.214" y="595.072" width="43.9285" height="43.9285" transform="rotate(-180 351.214 595.072)" fill="#A1E6D5"/>
<rect x="351.214" y="551.143" width="43.9285" height="43.9285" transform="rotate(-180 351.214 551.143)" fill="#A1E6D5"/>
<rect x="351.214" y="507.214" width="43.9285" height="43.9285" transform="rotate(-180 351.214 507.214)" fill="#A1E6D5"/>
<rect opacity="0.1" x="351.214" y="331.5" width="43.9285" height="43.9285" transform="rotate(-180 351.214 331.5)" fill="#A1E6D5"/>
<rect opacity="0.5" x="351.214" y="287.572" width="43.9285" height="43.9285" transform="rotate(-180 351.214 287.572)" fill="#A1E6D5"/>
<rect x="395.142" y="331.5" width="43.9285" height="43.9285" transform="rotate(-180 395.142 331.5)" fill="#A1E6D5"/>
<rect opacity="0.4" x="482.999" y="331.5" width="43.9285" height="43.9285" transform="rotate(-180 482.999 331.5)" fill="#A1E6D5"/>
<rect x="482.999" y="375.429" width="43.9285" height="43.9285" transform="rotate(-180 482.999 375.429)" fill="#A1E6D5"/>
<rect opacity="0.3" x="439.07" y="375.429" width="43.9285" height="43.9285" transform="rotate(-180 439.07 375.429)" fill="#A1E6D5"/>
</g>
</g>
</svg>
