<svg width="335" height="698" viewBox="0 0 335 698" fill="none" xmlns="http://www.w3.org/2000/svg">
<rect width="335" height="698" rx="16" fill="white"/>
<mask id="mask0_1534_6825" style="mask-type:alpha" maskUnits="userSpaceOnUse" x="0" y="0" width="335" height="154">
<rect x="335" width="154" height="335" rx="16" transform="rotate(90 335 0)" fill="#A1E6D5"/>
</mask>
<g mask="url(#mask0_1534_6825)">
<g opacity="0.3">
<rect x="-0.699219" y="0.0991211" width="37.2999" height="37.2999" transform="rotate(-90 -0.699219 0.0991211)" fill="#A1E6D5"/>
<rect x="36.6006" y="0.0991211" width="37.2999" height="37.2999" transform="rotate(-90 36.6006 0.0991211)" fill="#A1E6D5"/>
<rect x="73.9014" y="0.0991211" width="37.2999" height="37.2999" transform="rotate(-90 73.9014 0.0991211)" fill="#43CEAC"/>
<rect opacity="0.5" x="111.2" y="0.0991211" width="37.2999" height="37.2999" transform="rotate(-90 111.2 0.0991211)" fill="#A1E6D5"/>
<rect opacity="0.6" x="148.499" y="0.0991211" width="37.2999" height="37.2999" transform="rotate(-90 148.499 0.0991211)" fill="#A1E6D5"/>
<rect x="185.799" y="0.0991211" width="37.2999" height="37.2999" transform="rotate(-90 185.799 0.0991211)" fill="#43CEAC"/>
<rect x="223.1" y="0.0991211" width="37.2999" height="37.2999" transform="rotate(-90 223.1 0.0991211)" fill="#A1E6D5"/>
<rect x="260.399" y="0.0991211" width="37.2999" height="37.2999" transform="rotate(-90 260.399 0.0991211)" fill="#A1E6D5"/>
<rect x="297.7" y="0.0991211" width="37.2999" height="37.2999" transform="rotate(-90 297.7 0.0991211)" fill="#A1E6D5"/>
<rect x="-0.699219" y="37.3999" width="37.2999" height="37.2999" transform="rotate(-90 -0.699219 37.3999)" fill="#A1E6D5"/>
<rect x="36.6006" y="37.3999" width="37.2999" height="37.2999" transform="rotate(-90 36.6006 37.3999)" fill="#A1E6D5"/>
<rect x="73.9014" y="37.3999" width="37.2999" height="37.2999" transform="rotate(-90 73.9014 37.3999)" fill="#A1E6D5"/>
<rect x="111.2" y="37.3999" width="37.2999" height="37.2999" transform="rotate(-90 111.2 37.3999)" fill="#A1E6D5"/>
<rect x="148.499" y="37.3999" width="37.2999" height="37.2999" transform="rotate(-90 148.499 37.3999)" fill="#A1E6D5"/>
<rect opacity="0.5" x="185.799" y="37.3999" width="37.2999" height="37.2999" transform="rotate(-90 185.799 37.3999)" fill="#A1E6D5"/>
<rect opacity="0.1" x="223.1" y="37.3999" width="37.2999" height="37.2999" transform="rotate(-90 223.1 37.3999)" fill="#A1E6D5"/>
<rect x="260.399" y="37.3999" width="37.2999" height="37.2999" transform="rotate(-90 260.399 37.3999)" fill="#A1E6D5"/>
<rect opacity="0.6" x="297.7" y="37.3999" width="37.2999" height="37.2999" transform="rotate(-90 297.7 37.3999)" fill="#A1E6D5"/>
<rect opacity="0.4" x="-0.699219" y="74.6995" width="37.2999" height="37.2999" transform="rotate(-90 -0.699219 74.6995)" fill="#A1E6D5"/>
<rect x="36.6006" y="74.6995" width="37.2999" height="37.2999" transform="rotate(-90 36.6006 74.6995)" fill="#A1E6D5"/>
<rect x="73.9014" y="74.6995" width="37.2999" height="37.2999" transform="rotate(-90 73.9014 74.6995)" fill="#A1E6D5"/>
<rect x="111.2" y="74.6995" width="37.2999" height="37.2999" transform="rotate(-90 111.2 74.6995)" fill="#A1E6D5"/>
<rect opacity="0.5" x="148.499" y="74.6995" width="37.2999" height="37.2999" transform="rotate(-90 148.499 74.6995)" fill="#A1E6D5"/>
<rect x="185.799" y="74.6995" width="37.2999" height="37.2999" transform="rotate(-90 185.799 74.6995)" fill="#A1E6D5"/>
<rect x="223.1" y="74.6995" width="37.2999" height="37.2999" transform="rotate(-90 223.1 74.6995)" fill="#A1E6D5"/>
<rect x="260.399" y="74.6995" width="37.2999" height="37.2999" transform="rotate(-90 260.399 74.6995)" fill="#A1E6D5"/>
<rect x="297.7" y="74.6995" width="37.2999" height="37.2999" transform="rotate(-90 297.7 74.6995)" fill="#A1E6D5"/>
<rect x="-0.699219" y="112" width="37.2999" height="37.2999" transform="rotate(-90 -0.699219 112)" fill="#A1E6D5"/>
<rect x="36.6006" y="112" width="37.2999" height="37.2999" transform="rotate(-90 36.6006 112)" fill="#43CEAC"/>
<rect opacity="0.3" x="73.9014" y="112" width="37.2999" height="37.2999" transform="rotate(-90 73.9014 112)" fill="#A1E6D5"/>
<rect x="111.2" y="112" width="37.2999" height="37.2999" transform="rotate(-90 111.2 112)" fill="#A1E6D5"/>
<rect x="148.499" y="112" width="37.2999" height="37.2999" transform="rotate(-90 148.499 112)" fill="#A1E6D5"/>
<rect x="185.799" y="112" width="37.2999" height="37.2999" transform="rotate(-90 185.799 112)" fill="#A1E6D5"/>
<rect opacity="0.2" x="223.1" y="112" width="37.2999" height="37.2999" transform="rotate(-90 223.1 112)" fill="#A1E6D5"/>
<rect x="260.399" y="112" width="37.2999" height="37.2999" transform="rotate(-90 260.399 112)" fill="#A1E6D5"/>
<rect x="297.7" y="112" width="37.2999" height="37.2999" transform="rotate(-90 297.7 112)" fill="#A1E6D5"/>
<rect opacity="0.2" x="-0.699219" y="149.3" width="37.2999" height="37.2999" transform="rotate(-90 -0.699219 149.3)" fill="#A1E6D5"/>
<rect x="36.6006" y="149.3" width="37.2999" height="37.2999" transform="rotate(-90 36.6006 149.3)" fill="#A1E6D5"/>
<rect x="73.9014" y="149.3" width="37.2999" height="37.2999" transform="rotate(-90 73.9014 149.3)" fill="#A1E6D5"/>
<rect opacity="0.1" x="223.1" y="149.3" width="37.2999" height="37.2999" transform="rotate(-90 223.1 149.3)" fill="#A1E6D5"/>
<rect opacity="0.5" x="260.399" y="149.3" width="37.2999" height="37.2999" transform="rotate(-90 260.399 149.3)" fill="#A1E6D5"/>
<rect x="223.1" y="186.599" width="37.2999" height="37.2999" transform="rotate(-90 223.1 186.599)" fill="#A1E6D5"/>
</g>
</g>
</svg>
