<svg xmlns="http://www.w3.org/2000/svg" viewBox="0 0 48 48">
  
<g transform="matrix(2,0,0,2,0,0)"><g>
    <path d="M17.21,10a.23.23,0,0,0,.2-.2.24.24,0,0,0-.12-.26A19.88,19.88,0,0,0,14.47,8.4L14,8.23a1.83,1.83,0,0,1-.06-1.18,4.6,4.6,0,0,0,1.22-3.56A3.23,3.23,0,0,0,12,0a3.11,3.11,0,0,0-1.34.31.26.26,0,0,0-.1.37,5,5,0,0,1,.84,2.81,6.23,6.23,0,0,1-.93,3.62.22.22,0,0,0,0,.21.22.22,0,0,0,.15.16c1.91.72,3.3,1.33,3.9,2.54l.15.33a.25.25,0,0,0,.31.14l.39-.1Z" style="fill: #000000"></path>
    <path d="M13.54,11.36a.27.27,0,0,0,.06-.26,4.06,4.06,0,0,0-.22-.52c-.45-.91-1.9-1.44-3.91-2.18L9,8.23a1.83,1.83,0,0,1-.06-1.18,4.6,4.6,0,0,0,1.22-3.56A3.23,3.23,0,0,0,7,0,3.23,3.23,0,0,0,3.85,3.49,4.55,4.55,0,0,0,5.05,7,1.92,1.92,0,0,1,5,8.21l-.51.19c-2,.74-3.46,1.27-3.91,2.18A7.56,7.56,0,0,0,0,13.5a.5.5,0,0,0,.5.5H12.25a.25.25,0,0,0,.25-.24A3.47,3.47,0,0,1,13.54,11.36Z" style="fill: #000000"></path>
    <path d="M13.5,24A2.5,2.5,0,0,0,16,21.5V14a.26.26,0,0,1,.2-.25l5.5-1a.3.3,0,0,1,.21.05A.25.25,0,0,1,22,13v3.75a.27.27,0,0,1-.08.19.26.26,0,0,1-.19.06H21.5A2.5,2.5,0,1,0,24,19.5V12.7a2,2,0,0,0-2.37-2l-6,1.12a2,2,0,0,0-1.63,2v4.93a.27.27,0,0,1-.08.19.26.26,0,0,1-.19.06H13.5a2.5,2.5,0,0,0,0,5Z" style="fill: #000000"></path>
  </g></g></svg>