<svg xmlns="http://www.w3.org/2000/svg" fill="none" viewBox="0 0 48 48">
  
  
<g transform="matrix(1,0,0,1,0,0)"><path fill="#000000" d="M20.2536 9.90911C19.7199 10.0073 19.165 9.71447 18.9926 9.1999L18.4842 7.68232C18.3476 7.27472 17.9651 6.99774 17.5355 7.01231C13.8236 7.13818 10.5882 8.19752 9.2096 8.71616C8.73912 8.89316 8.34272 9.20645 8.06848 9.62772C6.59274 11.8946 1.85467 20.2564 2.00342 33.9762C2.01162 34.7321 2.32394 35.4557 2.91586 35.9259C4.32704 37.0467 7.44253 39.1597 12.4193 40.6766C13.1095 40.8869 13.8671 40.6865 14.2738 40.0904C14.9284 39.131 15.5099 37.913 15.9144 36.9728C16.1268 36.4792 16.681 36.2261 17.1968 36.3767C18.9423 36.8866 21.2004 37.2795 24.0148 37.2795C26.8198 37.2795 29.069 36.8892 30.8078 36.3818C31.3236 36.2313 31.8777 36.4843 32.0901 36.9778C32.4946 37.9174 33.0752 39.1327 33.7287 40.0904C34.1354 40.6865 34.8929 40.8869 35.5831 40.6766C40.5599 39.1597 43.6754 37.0467 45.0866 35.9259C45.6785 35.4557 45.9908 34.7321 45.999 33.9762C46.1465 20.3676 41.486 12.0305 39.9703 9.68403C39.6751 9.22706 39.2369 8.8942 38.7229 8.71616C37.2352 8.20096 33.8358 7.1522 30.4662 7.01494C30.0367 6.99744 29.6548 7.27472 29.5183 7.68232L29.0112 9.19575C28.8383 9.71197 28.2807 10.0053 27.7454 9.90643C26.9526 9.75995 25.6851 9.59377 24.0148 9.59377C22.3342 9.59377 21.0528 9.76199 20.2536 9.90911Z"></path><path fill="#ffffff" fill-rule="evenodd" d="M16.5 30C18.9853 30 21 27.7614 21 25C21 22.2386 18.9853 20 16.5 20C14.0147 20 12 22.2386 12 25C12 27.7614 14.0147 30 16.5 30ZM31.5 30C29.0147 30 27 27.7614 27 25C27 22.2386 29.0147 20 31.5 20C33.9853 20 36 22.2386 36 25C36 27.7614 33.9853 30 31.5 30Z" clip-rule="evenodd"></path></g></svg>