<svg xmlns="http://www.w3.org/2000/svg" viewBox="0 0 48 48">
  
<g transform="matrix(2,0,0,2,0,0)"><g>
    <path d="M24,12a9,9,0,0,0-7.25-8.83.23.23,0,0,0-.22.07.21.21,0,0,0-.07.21,3.31,3.31,0,0,1,0,.55V9.62a.25.25,0,0,0,.17.23,2.25,2.25,0,0,1,0,4.3.25.25,0,0,0-.17.23V20a3.31,3.31,0,0,1,0,.55.21.21,0,0,0,.07.21.23.23,0,0,0,.22.07A9,9,0,0,0,24,12Z" style="fill: #000000"></path>
    <path d="M15,20V4a2,2,0,0,0-2-2H2A2,2,0,0,0,0,4V20a2,2,0,0,0,2,2H13A2,2,0,0,0,15,20ZM4.25,13.3h0a.21.21,0,0,0,.15-.07.18.18,0,0,0,.07-.15v-3A1.74,1.74,0,0,1,5.93,8.41L9.34,7.3A1.74,1.74,0,0,1,11.5,9v4.05A1.75,1.75,0,1,1,9.75,11.3h0a.21.21,0,0,0,.15-.07.18.18,0,0,0,.07-.15V9a.23.23,0,0,0-.09-.19.25.25,0,0,0-.2-.06L6.3,9.86c-.21,0-.3.14-.3.26v4.93A1.75,1.75,0,1,1,4.25,13.3Z" style="fill: #000000"></path>
  </g></g></svg>
