<svg xmlns="http://www.w3.org/2000/svg" viewBox="0 0 48 48">
  
<g transform="matrix(2,0,0,2,0,0)"><g>
    <path d="M15.64,16.49a.59.59,0,0,1-.34.1H5.1a.59.59,0,0,1-.34-.1L.33,13.64a.2.2,0,0,0-.21,0,.21.21,0,0,0-.12.18v8.51A1.7,1.7,0,0,0,1.7,24h17a1.7,1.7,0,0,0,1.7-1.69V13.82a.21.21,0,0,0-.11-.18.2.2,0,0,0-.22,0Z" style="fill: #000000"></path>
    <g>
      <path d="M19.5,12.14l-2.09-1.45L14,8.2a3.8,3.8,0,0,1-1.23,2.54,5.31,5.31,0,0,1,2.72,4l.6,0L19.5,12.5a.21.21,0,0,0,.09-.18A.19.19,0,0,0,19.5,12.14Z" style="fill: #000000"></path>
      <path d="M7.61,10.78A3.85,3.85,0,0,1,6.34,8.23L3,10.69.89,12.14a.21.21,0,0,0-.09.18.22.22,0,0,0,.1.18l3.45,2.22H5A5.27,5.27,0,0,1,7.61,10.78Z" style="fill: #000000"></path>
    </g>
    <path d="M19.39,0a4.55,4.55,0,1,0,4.54,4.54A4.55,4.55,0,0,0,19.39,0Zm2,5.29H20.14V6.55a.75.75,0,1,1-1.5,0V5.33H17.43a.75.75,0,0,1,0-1.5h1.21V2.62a.75.75,0,0,1,1.5,0V3.83h1.21a.75.75,0,0,1,0,1.5Z" style="fill: #000000"></path>
    <circle cx="10.15" cy="7.92" r="2.67" style="fill: #000000"></circle>
    <path d="M14.34,15.39a4.15,4.15,0,1,0-8.29,0Z" style="fill: #000000"></path>
  </g></g></svg>