<svg xmlns="http://www.w3.org/2000/svg" viewBox="0 0 48 48">
  
<g transform="matrix(2,0,0,2,0,0)"><path d="M24,3.8A3.5,3.5,0,0,0,20.5.3H3.5A3.52,3.52,0,0,0,0,3.8v13A4.52,4.52,0,0,0,3.31,21C15.44,23.83,14.7,23.7,15.24,23.7A2.67,2.67,0,0,0,17,23.11,2.84,2.84,0,0,0,18,20.8V11.11A4.27,4.27,0,0,0,14.89,7L4.06,4a.75.75,0,0,1,.39-1.45c3.73,1,3.52,1,3.57,1H20.5a.75.75,0,0,1,0,1.5H15.26a.25.25,0,0,0-.24.22.25.25,0,0,0,.18.28,5.72,5.72,0,0,1,3,1.91.25.25,0,0,0,.2.09H20.5a.75.75,0,0,1,0,1.5h-1a.24.24,0,0,0-.2.11.25.25,0,0,0,0,.22,5.55,5.55,0,0,1,.28,1.73v6.94a.25.25,0,0,0,.25.25h.75A3.5,3.5,0,0,0,24,14.8ZM15.5,15.3a2,2,0,1,1-2-2A2,2,0,0,1,15.5,15.3Z" style="fill: #000000"></path></g></svg>